#!OML:ASF F:\VICON\USERDATA\INSTALL\rory3\rory3.ASF
:FULLY-SPECIFIED
:DEGREES
226
root 1.12881 18.8476 -16.4097 4.89875 -1.55165 -1.40599
lowerback 12.3794 0.131434 0.401161
upperback 0.5007 0.418932 2.82054
thorax -6.44532 0.235872 2.67683
lowerneck -21.3448 -3.56632 -8.28951
upperneck 11.497 -3.53091 6.73101
head 7.26526 -1.43176 3.13095
rclavicle 5.76476e-015 0
rhumerus -35.2441 0.448693 -84.431
rradius 60.275
rwrist -0.359635
rhand -21.26 25.4584
rfingers 7.12502
rthumb 5.12326 -4.45963
lclavicle 5.76476e-015 0
lhumerus -31.726 -1.40437 89.5312
lradius 51.1883
lwrist 6.2631
lhand -20.9543 24.6792
lfingers 7.12502
lthumb 5.41848 54.5899
rfemur -17.7164 0.60338 20.982
rtibia 33.345
rfoot 12.1748 -1.72294
rtoes -3.97263
lfemur -15.7363 -3.48427 -17.4992
ltibia 30.0429
lfoot 9.89097 -1.78036
ltoes -18.8545
227
root 1.13553 19.1585 -16.3549 5.16771 -1.80903 -1.17182
lowerback 11.5006 0.160839 0.206731
upperback 0.221801 0.419943 2.79216
thorax -6.24835 0.242431 2.75349
lowerneck -21.4043 -3.48108 -8.56937
upperneck 12.1867 -3.38424 6.88714
head 7.49948 -1.36149 3.25345
rclavicle 4.27387e-015 -2.62396e-014
rhumerus -35.6167 0.318846 -84.279
rradius 59.3743
rwrist -0.0506196
rhand -21.5896 25.2673
rfingers 7.12502
rthumb 4.80504 -4.65817
lclavicle 4.27387e-015 -2.62396e-014
lhumerus -32.2905 -0.875623 89.4016
lradius 50.1708
lwrist 5.41234
lhand -19.3238 27.1872
lfingers 7.12502
lthumb 6.9926 57.0517
rfemur -16.7987 1.56848 20.4098
rtibia 30.31
rfoot 16.6564 -2.68116
rtoes -0.505709
lfemur -14.4808 -4.85401 -17.5988
ltibia 26.4483
lfoot 15.3983 0.231905
ltoes -16.5156
228
root 1.14003 19.4561 -16.298 5.48713 -2.0123 -1.04555
lowerback 10.5314 0.175637 0.132194
upperback -0.0529066 0.418105 2.76197
thorax -5.99293 0.243551 2.76053
lowerneck -21.2428 -3.3701 -8.69544
upperneck 12.5024 -3.24501 7.00643
head 7.57065 -1.29401 3.33585
rclavicle 3.97569e-016 0
rhumerus -36.1138 0.108157 -84.1829
rradius 58.6341
rwrist -0.0206651
rhand -21.1881 25.5696
rfingers 7.12502
rthumb 5.19275 -4.34678
lclavicle 3.97569e-016 0
lhumerus -33.0227 -0.545468 89.2684
lradius 49.3355
lwrist 5.35968
lhand -19.6788 26.7008
lfingers 7.12502
lthumb 6.64992 56.5763
rfemur -16.0105 2.3829 20.0472
rtibia 27.6135
rfoot 19.5391 -3.84521
rtoes 1.83528
lfemur -13.5741 -6.16659 -17.5705
ltibia 23.3917
lfoot 19.8474 2.33059
ltoes -11.4845
229
root 1.14459 19.7388 -16.2461 5.79032 -2.16763 -0.975129
lowerback 9.51509 0.12637 0.166984
upperback -0.201577 0.341206 2.73867
thorax -5.572 0.202684 2.72278
lowerneck -21.1983 -3.33306 -8.74077
upperneck 12.6634 -3.1851 6.96836
head 7.6117 -1.27306 3.33983
rclavicle 8.94531e-015 3.26007e-014
rhumerus -36.368 0.101447 -84.2044
rradius 57.8947
rwrist -0.446803
rhand -20.7343 25.3669
rfingers 7.12502
rthumb 5.63089 -4.53831
lclavicle 8.94531e-015 3.26007e-014
lhumerus -33.5288 -0.0424232 89.0219
lradius 48.6334
lwrist 5.2177
lhand -20.5502 23.9834
lfingers 7.12502
lthumb 5.80859 53.8838
rfemur -15.3476 2.99033 19.8153
rtibia 25.4458
rfoot 20.5384 -5.77908
rtoes 1.69135
lfemur -13.001 -7.11254 -17.5532
ltibia 21.1283
lfoot 22.7525 3.4075
ltoes -8.33232
230
root 1.14876 20.0044 -16.2054 6.11111 -2.47739 -1.05113
lowerback 8.54264 0.16142 0.30247
upperback -0.251252 0.387129 2.76953
thorax -5.07683 0.219535 2.66736
lowerneck -21.3177 -3.33959 -8.92799
upperneck 12.9141 -3.14612 7.01152
head 7.71545 -1.25904 3.39259
rclavicle 4.27387e-015 4.77083e-014
rhumerus -36.4131 0.204616 -84.134
rradius 57.3292
rwrist -1.18033
rhand -21.4501 23.2502
rfingers 7.12502
rthumb 4.93979 -6.67218
lclavicle 4.27387e-015 4.77083e-014
lhumerus -33.8414 0.483567 88.7925
lradius 48.1936
lwrist 4.63675
lhand -21.025 21.8114
lfingers 7.12502
lthumb 5.35025 51.7239
rfemur -15.0123 3.43275 19.8165
rtibia 24.0041
rfoot 20.2944 -8.49765
rtoes 1.07781
lfemur -12.7117 -7.20879 -17.4823
ltibia 19.7184
lfoot 23.7228 3.35677
ltoes -7.14383
